<svg width="48" height="48" viewBox="0 0 48 48" fill="none" xmlns="http://www.w3.org/2000/svg">
<path d="M25.0244 8.25535C25.5806 6.54161 27.4192 5.60374 29.1311 6.16057L45.6031 11.5186C47.315 12.0754 48.2518 13.9161 47.6956 15.6298L39.8689 39.7446C39.3127 41.4584 37.474 42.3963 35.7622 41.8394L19.2901 36.4814C17.5783 35.9246 16.6414 34.0839 17.1977 32.3702L25.0244 8.25535Z" fill="#FE4A22"/>
<path d="M9.50133 9.1608L2.39684 11.4717C0.684988 12.0286 -0.251841 13.8692 0.304373 15.583L8.13109 39.6978C8.68731 41.4116 10.5259 42.3494 12.2378 41.7926L14.2744 41.1301C11.5515 40.5795 9.50133 38.1706 9.50133 35.2823V9.1608Z" fill="#FE4A22"/>
<path d="M22.8564 6.73708H15.3137C13.5137 6.73708 12.0546 8.19784 12.0546 9.99978V35.3556C12.0546 37.1575 13.5137 38.6183 15.3137 38.6183H18.0671C15.3418 37.3797 13.923 34.2617 14.8697 31.3448L22.8564 6.73708Z" fill="#FE4A22"/>
</svg>
